<svg xmlns="http://www.w3.org/2000/svg"><symbol id="artboard-1" viewBox="0 0 64 64"><path d="M61.9 41.6a32.8 32.8 0 0 1-2.1 3.1c-2.8 3.4-7.1 3.8-9.6 1s-2.4-4.8-2.1-7.7a12.8 12.8 0 0 1 2.9-7c1.9-2.2 4.2-3.5 7-2.7s4.2 3.1 4.7 6a30.6 30.6 0 0 1 .2 3.4 10.5 10.5 0 0 1-1 3.9zM2.3 20.9A22 22 0 0 1 4 18.4c1.9-2.3 4.2-3.6 7.1-2.8s4 2.8 4.6 5.3a13.3 13.3 0 0 1-.1 5.6 11.6 11.6 0 0 1-4.2 7c-3.6 2.8-8 1.7-9.6-2.6a20.4 20.4 0 0 1-.7-4.9 10.8 10.8 0 0 1 1.2-5.1zm44.1 33.5a11.3 11.3 0 0 1-3.7 6c-2.7 2.2-5.7 2.2-8.3-.1a49.9 49.9 0 0 1-4.1-4.5 9.5 9.5 0 0 0-5.1-3.2 9 9 0 0 0-4.7.3l-5.3 1.5c-5.3 1.3-8.9-1.9-8.7-7.5s2.4-8.2 5.6-11.2l1.9-1.8a17.1 17.1 0 0 1 13.8-5c6 .5 11.3 2.8 14.9 7.9a22.3 22.3 0 0 1 3.7 17.6zM35 16.4a14.3 14.3 0 0 1-6 8.2c-4 2.4-8.3 1.3-10.5-2.8s-1.9-8.5-.3-12.9a13.8 13.8 0 0 1 4.9-6.5C27.6-.8 32.5.6 34.8 5.6c1.2 2.9 1.4 6.6.2 10.8z"/><path d="M53.9 20.8a14.3 14.3 0 0 1-6.1 8.8c-4 2.5-8.3 1.4-10.6-2.7-3.4-6.2-.8-16.1 5.2-19.8 4.1-2.5 8.5-1.3 10.7 3a14.8 14.8 0 0 1 .8 10.7z"/><path fill="#9ec3d3" d="M25.8 52.4c-1-3.1-2.8-5.7-4.5-8.4a13.1 13.1 0 0 1-2-4.3 6.9 6.9 0 0 1 1.5-6.5 5.8 5.8 0 0 1 9.6 1.8l.2.5.4-.2a5.8 5.8 0 0 1 7.2.1 5.9 5.9 0 0 1 1.6 7.1 10 10 0 0 1-4.9 4.7l-6 3.2c-1.1.5-2 1.3-3.1 2z"/></symbol><symbol id="artboard-6" viewBox="0 0 16 16"><rect width="12.3" height="1.54" x="2" y="1.9" fill="#fff" rx=".8" ry=".8"/><rect width="12.3" height="1.54" x="2" y="4.8" fill="#fff" rx=".8" ry=".8"/><rect width="12.3" height="1.54" x="2" y="7.8" fill="#fff" rx=".8" ry=".8"/><rect width="12.3" height="1.54" x="2" y="10.9" fill="#fff" rx=".8" ry=".8"/></symbol><symbol id="artboard-4" viewBox="0 0 16 16"><path fill="#fff" d="M15.1 3.3v9.4l-.2.6a2.4 2.4 0 0 1-1.8 1.4h-2.6v-5h2.2V7.5h-2.2v-.8c0-.2.2-.6.7-.6h1.5V3.8h-1.8l-1 .2a2.9 2.9 0 0 0-1.5 2.7v.8H6.8v2.2h1.6v5.1H3.7l-.8-.3a2.4 2.4 0 0 1-1.1-1.6V3.3l.2-.6a2.4 2.4 0 0 1 1.7-1.3h9.4l.8.3a2.4 2.4 0 0 1 1.2 1.6z"/></symbol><symbol id="artboard-3" viewBox="0 0 16 16"><path d="M15.4 10.5l-.5.7a1.5 1.5 0 0 1-2.3.2 2.2 2.2 0 0 1-.5-1.8 3 3 0 0 1 .7-1.6 1.5 1.5 0 0 1 2.8.8 7.3 7.3 0 0 1 0 .8 2.5 2.5 0 0 1-.2.9zM1.3 5.6l.4-.6a1.6 1.6 0 0 1 1.7-.7 1.5 1.5 0 0 1 1 1.3 3.1 3.1 0 0 1 0 1.3 2.7 2.7 0 0 1-1 1.6 1.4 1.4 0 0 1-2.3-.6A4.8 4.8 0 0 1 1 6.8a2.6 2.6 0 0 1 .3-1.2zm10.4 7.9a2.7 2.7 0 0 1-.9 1.4 1.4 1.4 0 0 1-2 0l-1-1.1a2.2 2.2 0 0 0-1.2-.8 2.1 2.1 0 0 0-1.1.1l-1.3.4a1.6 1.6 0 0 1-2.1-1.8 3.8 3.8 0 0 1 1.5-2.6l.4-.4a4.1 4.1 0 0 1 3.3-1.2 4.5 4.5 0 0 1 3.5 1.9 5.3 5.3 0 0 1 .9 4.1zM9 4.5a3.4 3.4 0 0 1-1.4 2 1.7 1.7 0 0 1-2.5-.7A3.5 3.5 0 0 1 5 2.7a3.3 3.3 0 0 1 1.2-1.5A1.7 1.7 0 0 1 9 2a3.8 3.8 0 0 1 0 2.5zm4.5 1.1a3.4 3.4 0 0 1-1.4 2.1A1.7 1.7 0 0 1 9.6 7a3.8 3.8 0 0 1 1.2-4.7 1.7 1.7 0 0 1 2.5.7 3.5 3.5 0 0 1 .2 2.6z"/><path fill="#9ec3d3" d="M6.8 13.1a8.4 8.4 0 0 0-1.1-2 3.1 3.1 0 0 1-.5-1 1.6 1.6 0 0 1 .4-1.5 1.4 1.4 0 0 1 2.3.4H8a1.4 1.4 0 0 1 1.8 0 1.4 1.4 0 0 1 .4 1.7A2.4 2.4 0 0 1 9 11.8l-1.4.8z"/></symbol><symbol id="artboard-2" viewBox="0 0 32 32"><path d="M30.8 21.4a16.3 16.3 0 0 1-1 1.5c-1.4 1.7-3.5 1.9-4.8.5a4.6 4.6 0 0 1-1-3.8 6.3 6.3 0 0 1 1.5-3.5 3.1 3.1 0 0 1 5.8 1.6 15.2 15.2 0 0 1 .1 1.7 5.2 5.2 0 0 1-.6 2zM1.3 11.1l.8-1.2a3.3 3.3 0 0 1 3.6-1.5A3.2 3.2 0 0 1 8 11a6.6 6.6 0 0 1 0 2.8 5.7 5.7 0 0 1-2.1 3.4A2.9 2.9 0 0 1 1.1 16a10.1 10.1 0 0 1-.4-2.4 5.4 5.4 0 0 1 .6-2.5zm21.9 16.6a5.6 5.6 0 0 1-1.8 3 2.9 2.9 0 0 1-4.1-.1 24.7 24.7 0 0 1-2-2.2 4.7 4.7 0 0 0-2.5-1.6 4.4 4.4 0 0 0-2.3.2l-2.6.8c-2.6.6-4.4-.9-4.3-3.7a7.9 7.9 0 0 1 2.8-5.6l.9-.9a8.5 8.5 0 0 1 6.7-2.5 9.4 9.4 0 0 1 7.3 3.9 11.1 11.1 0 0 1 1.9 8.7zM17.5 8.9a7.1 7.1 0 0 1-3 4.1 3.5 3.5 0 0 1-5.2-1.4 7.4 7.4 0 0 1-.1-6.4A6.8 6.8 0 0 1 11.6 2a3.6 3.6 0 0 1 5.8 1.6 7.9 7.9 0 0 1 .1 5.3z"/><path d="M26.9 11a7.1 7.1 0 0 1-3 4.4 3.5 3.5 0 0 1-5.3-1.4c-1.7-3.1-.4-8 2.6-9.8a3.6 3.6 0 0 1 5.3 1.5 7.3 7.3 0 0 1 .4 5.3z"/><path fill="#9ec3d3" d="M13 26.7a17.6 17.6 0 0 0-2.3-4.2 6.5 6.5 0 0 1-1-2.1 3.4 3.4 0 0 1 .8-3.2 2.9 2.9 0 0 1 4.8.9v.2h.2a2.9 2.9 0 0 1 3.6.1 2.9 2.9 0 0 1 .8 3.5 4.9 4.9 0 0 1-2.4 2.3l-3 1.6z"/></symbol></svg>