<svg id="Layer_1" data-name="Layer 1" xmlns="http://www.w3.org/2000/svg" width="16" height="16" viewBox="0 0 16 16"><title>Artboard 1</title><path d="M15.4,10.6l-.5.8a1.5,1.5,0,0,1-2.4.3A2.3,2.3,0,0,1,12,9.7a3.2,3.2,0,0,1,.7-1.8,1.6,1.6,0,0,1,2.9.8,7.6,7.6,0,0,1,.1.8A2.6,2.6,0,0,1,15.4,10.6Z"/><path d="M.7,5.4l.4-.6a1.6,1.6,0,0,1,1.8-.7A1.6,1.6,0,0,1,4,5.5a3.3,3.3,0,0,1,0,1.4,2.9,2.9,0,0,1-1,1.7A1.4,1.4,0,0,1,.6,7.9,5,5,0,0,1,.4,6.7,2.7,2.7,0,0,1,.7,5.4Z"/><path d="M11.5,13.7a2.8,2.8,0,0,1-.9,1.5,1.4,1.4,0,0,1-2,0l-1-1.1a2.3,2.3,0,0,0-1.3-.8,2.2,2.2,0,0,0-1.2.1l-1.3.4a1.6,1.6,0,0,1-2.2-1.9A3.9,3.9,0,0,1,3.1,9.1l.5-.4A4.2,4.2,0,0,1,7,7.5a4.7,4.7,0,0,1,3.7,1.9A5.5,5.5,0,0,1,11.5,13.7Z"/><path d="M8.8,4.3a3.5,3.5,0,0,1-1.5,2,1.7,1.7,0,0,1-2.6-.7,3.7,3.7,0,0,1-.1-3.2A3.4,3.4,0,0,1,5.8.9a1.8,1.8,0,0,1,2.9.8A4,4,0,0,1,8.8,4.3Z"/><path d="M13.4,5.4a3.5,3.5,0,0,1-1.5,2.2,1.8,1.8,0,0,1-2.6-.7A4,4,0,0,1,10.6,2a1.8,1.8,0,0,1,2.6.7A3.7,3.7,0,0,1,13.4,5.4Z"/><path d="M6.5,13.2a8.7,8.7,0,0,0-1.1-2.1,3.2,3.2,0,0,1-.5-1.1,1.7,1.7,0,0,1,.4-1.6,1.4,1.4,0,0,1,2.4.5h.1A1.4,1.4,0,0,1,9.5,9a1.5,1.5,0,0,1,.4,1.7,2.5,2.5,0,0,1-1.2,1.2l-1.5.8Z" fill="#9ec3d3"/></svg>