<svg id="Layer_1" data-name="Layer 1" xmlns="http://www.w3.org/2000/svg" width="256" height="256" viewBox="0 0 256 256"><title>Artboard 1</title><path d="M246.7,168.8c-2.7,4.2-5.1,8.6-8.2,12.4-11.2,13.4-28.1,15.2-38.3,4.1-7.8-8.5-9.6-19.2-8.3-30.5s4.7-20.3,11.7-28.4,16.5-13.9,27.8-10.8,16.8,12.4,18.7,23.9c.8,4.5.6,9.1.8,13.7A41.7,41.7,0,0,1,246.7,168.8Z"/><path d="M10,86.2a87.4,87.4,0,0,1,6.5-9.8C24,67.5,33.2,62.1,44.7,65.2S60.6,76.1,62.8,86.4a52.7,52.7,0,0,1-.3,22.1c-2.3,10.9-7.3,20.4-16.5,27.6-14.1,11.1-31.8,6.6-38-10.2-2.2-6-2.3-12.8-3-19.4S5.5,95.5,10,86.2Z"/><path d="M185.1,219.5c-2.7,9.5-7.1,17.7-14.7,23.8-10.9,8.8-22.8,8.9-33-.5a198.4,198.4,0,0,1-16.4-17.7,37.7,37.7,0,0,0-20.4-12.7c-6.5-1.6-12.5-.4-18.7,1.3s-14,4.4-21,6.1c-20.9,5-35.6-7.6-34.6-29.9.8-18.3,9.4-32.6,22.4-44.6l7.5-7c15.6-15.1,34.2-21.3,55-19.7,24,1.9,45,11,59.2,31.3S190.1,193.9,185.1,219.5Z"/><path d="M140.1,68.5c-3.7,12-10.9,24.6-24.1,32.6-15.6,9.5-32.9,5.1-41.6-11.1s-7.7-33.9-1.1-51.3c4-10.5,10.3-19.4,19.4-25.8C110.5.3,130.1,5.7,139,25.7,144,37.1,144.7,51.6,140.1,68.5Z"/><path d="M215.2,85.9c-4,14.7-11.4,27-24.3,35.1-15.8,9.9-33,5.4-42.1-10.9-13.7-24.5-3.2-64.2,20.8-78.7,16.4-10,33.7-5.1,42.6,11.9C218.4,55.1,219.5,70.1,215.2,85.9Z"/><path d="M103.4,211.7c-3.9-12.3-11.2-22.7-18.1-33.4-3.5-5.4-6.7-10.9-8.1-17.2-2-9.5-.9-18.6,6.1-25.9,11.5-12.1,31.7-8.2,38.2,7.3l.7,1.8,1.5-1a23.2,23.2,0,0,1,28.7.4,23.6,23.6,0,0,1,6.5,28.2c-4,9-11.2,14.3-19.5,18.7s-16,8.2-23.8,12.6C111.3,205.5,107.6,208.7,103.4,211.7Z" fill="#9ec3d3"/></svg>