<svg xmlns="http://www.w3.org/2000/svg" width="32" height="32" data-name="Layer 1" viewBox="0 0 32 32"><path d="M30.8 21.4a16.3 16.3 0 0 1-1 1.5c-1.4 1.7-3.5 1.9-4.8.5a4.6 4.6 0 0 1-1-3.8 6.3 6.3 0 0 1 1.5-3.5 3.1 3.1 0 0 1 5.8 1.6 15.2 15.2 0 0 1 .1 1.7 5.2 5.2 0 0 1-.6 2zM1.3 11.1l.8-1.2a3.3 3.3 0 0 1 3.6-1.5A3.2 3.2 0 0 1 8 11a6.6 6.6 0 0 1 0 2.8 5.7 5.7 0 0 1-2.1 3.4A2.9 2.9 0 0 1 1.1 16a10.1 10.1 0 0 1-.4-2.4 5.4 5.4 0 0 1 .6-2.5zm21.9 16.6a5.6 5.6 0 0 1-1.8 3 2.9 2.9 0 0 1-4.1-.1 24.7 24.7 0 0 1-2-2.2 4.7 4.7 0 0 0-2.5-1.6 4.4 4.4 0 0 0-2.3.2l-2.6.8c-2.6.6-4.4-.9-4.3-3.7a7.9 7.9 0 0 1 2.8-5.6l.9-.9a8.5 8.5 0 0 1 6.7-2.5 9.4 9.4 0 0 1 7.3 3.9 11.1 11.1 0 0 1 1.9 8.7zM17.5 8.9a7.1 7.1 0 0 1-3 4.1 3.5 3.5 0 0 1-5.2-1.4 7.4 7.4 0 0 1-.1-6.4A6.8 6.8 0 0 1 11.6 2a3.6 3.6 0 0 1 5.8 1.6 7.9 7.9 0 0 1 .1 5.3z"/><path d="M26.9 11a7.1 7.1 0 0 1-3 4.4 3.5 3.5 0 0 1-5.3-1.4c-1.7-3.1-.4-8 2.6-9.8a3.6 3.6 0 0 1 5.3 1.5 7.3 7.3 0 0 1 .4 5.3z"/><path fill="#9ec3d3" d="M13 26.7a17.6 17.6 0 0 0-2.3-4.2 6.5 6.5 0 0 1-1-2.1 3.4 3.4 0 0 1 .8-3.2 2.9 2.9 0 0 1 4.8.9v.2h.2a2.9 2.9 0 0 1 3.6.1 2.9 2.9 0 0 1 .8 3.5 4.9 4.9 0 0 1-2.4 2.3l-3 1.6z"/></svg>