<svg id="Layer_1" data-name="Layer 1" xmlns="http://www.w3.org/2000/svg" width="32" height="32" viewBox="0 0 32 32"><title>Artboard 1</title><path d="M30.7,21.1a16.2,16.2,0,0,1-1,1.5c-1.4,1.7-3.5,1.9-4.7.5a4.6,4.6,0,0,1-1-3.8,6.3,6.3,0,0,1,1.5-3.5,3.1,3.1,0,0,1,5.8,1.6,15.1,15.1,0,0,1,.1,1.7A5.2,5.2,0,0,1,30.7,21.1Z"/><path d="M1.4,10.8l.8-1.2A3.3,3.3,0,0,1,5.7,8.2a3.1,3.1,0,0,1,2.2,2.6,6.5,6.5,0,0,1,0,2.7A5.7,5.7,0,0,1,5.8,17a2.9,2.9,0,0,1-4.7-1.3,10.1,10.1,0,0,1-.4-2.4A5.4,5.4,0,0,1,1.4,10.8Z"/><path d="M23.1,27.4a5.6,5.6,0,0,1-1.8,3,2.9,2.9,0,0,1-4.1-.1,24.6,24.6,0,0,1-2-2.2,4.7,4.7,0,0,0-2.5-1.6,4.4,4.4,0,0,0-2.3.2l-2.6.8c-2.6.6-4.4-.9-4.3-3.7a7.8,7.8,0,0,1,2.8-5.5l.9-.9a8.5,8.5,0,0,1,6.8-2.4,9.3,9.3,0,0,1,7.3,3.9A11,11,0,0,1,23.1,27.4Z"/><path d="M17.5,8.6a7,7,0,0,1-3,4.1,3.5,3.5,0,0,1-5.2-1.4,7.4,7.4,0,0,1-.1-6.4,6.8,6.8,0,0,1,2.4-3.2,3.6,3.6,0,0,1,5.7,1.6A7.9,7.9,0,0,1,17.5,8.6Z"/><path d="M26.8,10.8a7.1,7.1,0,0,1-3,4.4,3.5,3.5,0,0,1-5.2-1.4c-1.7-3-.4-8,2.6-9.8a3.5,3.5,0,0,1,5.3,1.5A7.3,7.3,0,0,1,26.8,10.8Z"/><path d="M12.9,26.4a17.5,17.5,0,0,0-2.2-4.1,6.5,6.5,0,0,1-1-2.1,3.4,3.4,0,0,1,.8-3.2,2.9,2.9,0,0,1,4.7.9V18h.2a2.9,2.9,0,0,1,3.6.1,2.9,2.9,0,0,1,.8,3.5,4.9,4.9,0,0,1-2.4,2.3l-3,1.6Z" fill="#9ec3d3"/></svg>