<svg id="Layer_1" data-name="Layer 1" xmlns="http://www.w3.org/2000/svg" width="64" height="64" viewBox="0 0 64 64"><title>Artboard 1</title><path d="M61.9,41.6a32.8,32.8,0,0,1-2.1,3.1c-2.8,3.4-7.1,3.8-9.6,1s-2.4-4.8-2.1-7.7A12.8,12.8,0,0,1,51,31c1.9-2.2,4.2-3.5,7-2.7s4.2,3.1,4.7,6a30.6,30.6,0,0,1,.2,3.4A10.5,10.5,0,0,1,61.9,41.6Z"/><path d="M2.3,20.9A22,22,0,0,1,4,18.4c1.9-2.3,4.2-3.6,7.1-2.8s4,2.8,4.6,5.3a13.3,13.3,0,0,1-.1,5.6,11.6,11.6,0,0,1-4.2,7c-3.6,2.8-8,1.7-9.6-2.6A20.4,20.4,0,0,1,1.1,26,10.8,10.8,0,0,1,2.3,20.9Z"/><path d="M46.4,54.4a11.3,11.3,0,0,1-3.7,6c-2.7,2.2-5.7,2.2-8.3-.1a49.9,49.9,0,0,1-4.1-4.5,9.5,9.5,0,0,0-5.1-3.2,9,9,0,0,0-4.7.3l-5.3,1.5c-5.3,1.3-8.9-1.9-8.7-7.5s2.4-8.2,5.6-11.2L14,33.9a17.1,17.1,0,0,1,13.8-5c6,.5,11.3,2.8,14.9,7.9A22.3,22.3,0,0,1,46.4,54.4Z"/><path d="M35,16.4A14.3,14.3,0,0,1,29,24.6C25,27,20.7,25.9,18.5,21.8s-1.9-8.5-.3-12.9a13.8,13.8,0,0,1,4.9-6.5C27.6-.8,32.5.6,34.8,5.6,36,8.5,36.2,12.2,35,16.4Z"/><path d="M53.9,20.8a14.3,14.3,0,0,1-6.1,8.8c-4,2.5-8.3,1.4-10.6-2.7-3.4-6.2-.8-16.1,5.2-19.8,4.1-2.5,8.5-1.3,10.7,3A14.8,14.8,0,0,1,53.9,20.8Z"/><path d="M25.8,52.4c-1-3.1-2.8-5.7-4.5-8.4a13.1,13.1,0,0,1-2-4.3,6.9,6.9,0,0,1,1.5-6.5A5.8,5.8,0,0,1,30.4,35l.2.5.4-.2a5.8,5.8,0,0,1,7.2.1,5.9,5.9,0,0,1,1.6,7.1,10,10,0,0,1-4.9,4.7l-6,3.2C27.8,50.9,26.9,51.7,25.8,52.4Z" fill="#9ec3d3"/></svg>